<svg width="33" height="25" viewBox="0 0 33 25" fill="none" xmlns="http://www.w3.org/2000/svg">
<path d="M27.607 2.59531C25.5046 1.65095 23.2851 0.980988 21.0052 0.602539C20.6932 1.14972 20.4109 1.7127 20.1595 2.28911C17.731 1.93007 15.2614 1.93007 12.8328 2.28911C12.5813 1.71276 12.299 1.14979 11.9872 0.602539C9.70581 0.984184 7.48484 1.65574 5.3803 2.60025C1.20225 8.665 0.0696471 14.5791 0.635949 20.4093C3.08272 22.1829 5.82136 23.5318 8.73281 24.3973C9.38839 23.5322 9.96849 22.6145 10.467 21.6538C9.52018 21.3069 8.60638 20.8789 7.73612 20.3747C7.96516 20.2117 8.18916 20.0438 8.40562 19.8808C10.9379 21.0492 13.7017 21.655 16.5 21.655C19.2983 21.655 22.0621 21.0492 24.5943 19.8808C24.8133 20.0562 25.0373 20.2241 25.2638 20.3747C24.3919 20.8797 23.4764 21.3085 22.5279 21.6563C23.0258 22.6165 23.6059 23.5335 24.2621 24.3973C27.176 23.5353 29.9168 22.187 32.364 20.4118C33.0284 13.6506 31.2289 7.79085 27.607 2.59531ZM11.1843 16.8238C9.60618 16.8238 8.30242 15.4187 8.30242 13.6902C8.30242 11.9616 9.56087 10.5442 11.1792 10.5442C12.7976 10.5442 14.0913 11.9616 14.0636 13.6902C14.0359 15.4187 12.7926 16.8238 11.1843 16.8238ZM21.8157 16.8238C20.235 16.8238 18.9363 15.4187 18.9363 13.6902C18.9363 11.9616 20.1948 10.5442 21.8157 10.5442C23.4365 10.5442 24.7202 11.9616 24.6925 13.6902C24.6648 15.4187 23.424 16.8238 21.8157 16.8238Z" fill="white"/>
</svg>
